<?xml version="1.0" encoding="utf-8"?>
<!-- Generator: Adobe Illustrator 24.0.0, SVG Export Plug-In . SVG Version: 6.00 Build 0)  -->
<svg version="1.1" xmlns="http://www.w3.org/2000/svg" xmlns:xlink="http://www.w3.org/1999/xlink" x="0px" y="0px"
	 viewBox="0 0 256 256" enable-background="new 0 0 256 256" xml:space="preserve">
<g id="Layer_2">
</g>
<g id="Layer_1">
	<g>
	</g>
	<g>
		<path fill="#72C2E9" d="M240.515,23.049H15.485c-5.523,0-10,4.477-10,10v142.06c0,5.523,4.477,10.002,10,10.002h225.03
			c5.523,0,10-4.479,10-10.002V33.049C250.515,27.526,246.038,23.049,240.515,23.049z"/>
		
			<rect x="62.873" y="-2.534" transform="matrix(-1.836970e-16 1 -1 -1.836970e-16 232.0786 -23.9214)" fill="#F0C020" width="130.254" height="213.225"/>
		<polygon fill="#72C2E9" points="152.72,216.451 103.28,216.451 112.1,185.11 143.9,185.11 		"/>
		<polygon fill="#4BA5C8" points="146.48,194.281 109.52,194.281 112.1,185.11 143.9,185.11 		"/>
		<path fill="#72C2E9" d="M175.75,226.451v6.5h-95.5v-6.5c0-5.52,4.48-10,10-10h75.5C171.27,216.451,175.75,220.931,175.75,226.451z
			"/>
		<path fill="#EFEFEF" d="M206.398,85.155v56.772c0,2.76-2.23,5-5,5h-74.18c-2.77,0-5-2.24-5-5V85.155H206.398z"/>
		<path fill="#FC5D3D" d="M201.403,68.051h-74.189c-2.761,0-5,2.239-5,5V85.16h84.189V73.051
			C206.403,70.289,204.164,68.051,201.403,68.051z"/>
		<path fill="#7C7B7A" d="M87.858,78.567h-25.92l0.006-7.501c0.002-2.523,2.048-4.568,4.571-4.568H79.89
			c1.622,0,3.22-0.392,4.658-1.143l5.586-2.917C92.96,68.08,91.781,74.389,87.858,78.567z"/>
		<path fill="#FFB69F" d="M74.896,101.067L74.896,101.067c-7.156,0-12.957-5.801-12.957-12.957v-9.544h25.915v9.544
			C87.853,95.266,82.052,101.067,74.896,101.067z"/>
		<path fill="#FC5D3D" d="M99.807,116.166v15.901H49.597v-15.901c0-8.335,6.764-15.099,15.099-15.099h20.011
			C93.042,101.067,99.807,107.832,99.807,116.166z"/>
		<g>
			<g>
				<path fill="#F8E5B0" d="M225.612,162.707H46.867c-1.381,0-2.5-1.119-2.5-2.5s1.119-2.5,2.5-2.5h176.245V47.952
					c0-1.381,1.119-2.5,2.5-2.5s2.5,1.119,2.5,2.5v112.255C228.112,161.587,226.993,162.707,225.612,162.707z M36.867,162.707
					h-6.479c-1.381,0-2.5-1.119-2.5-2.5s1.119-2.5,2.5-2.5h6.479c1.381,0,2.5,1.119,2.5,2.5S38.248,162.707,36.867,162.707z"/>
			</g>
			<path d="M234.61,36.451H21.39c-1.345,0-2.5,1.081-2.5,2.5v30c0,1.38,1.12,2.5,2.5,2.5c1.38,0,2.5-1.12,2.5-2.5v-27.5h208.22
				v125.26H23.89v-77.76c0-1.381-1.12-2.5-2.5-2.5c-1.38,0-2.5,1.119-2.5,2.5v80.26c0,1.311,1.032,2.49,2.5,2.49h213.22
				c1.468,0,2.5-1.179,2.5-2.49V38.951C237.11,37.561,235.991,36.451,234.61,36.451z"/>
			<circle cx="21.39" cy="78.951" r="2.5"/>
			<path d="M253.015,33.049c0-6.893-5.607-12.5-12.5-12.5H15.485c-6.893,0-12.5,5.607-12.5,12.5v142.06
				c0,6.894,5.607,12.502,12.5,12.502h93.315l-7.412,26.34H90.25c-6.89,0-12.5,5.609-12.5,12.5v6.5c0,1.389,1.116,2.5,2.5,2.5h12
				c1.38,0,2.5-1.12,2.5-2.5c0-1.37-1.11-2.49-2.49-2.5h-0.01h-9.5v-4c0.01-4.131,3.37-7.49,7.5-7.5c7.046,0,63.067,0,75.5,0
				c4.13,0.01,7.49,3.369,7.5,7.5v4h-61c-1.38,0-2.5,1.119-2.5,2.5c0,1.38,1.12,2.5,2.5,2.5h63.5c1.384,0,2.5-1.111,2.5-2.5v-6.5
				c0-6.891-5.61-12.5-12.5-12.5h-11.136l-7.413-26.34h93.314c6.893,0,12.5-5.608,12.5-12.502V33.049z M149.419,213.951h-42.838
				l7.412-26.34h28.013L149.419,213.951z M248.015,175.109c0,4.137-3.364,7.502-7.5,7.502c-7.211,0-213.236,0-225.03,0
				c-4.136,0-7.5-3.365-7.5-7.502V33.049c0-4.136,3.364-7.5,7.5-7.5h225.03c4.136,0,7.5,3.364,7.5,7.5V175.109z"/>
			<circle cx="102.25" cy="232.951" r="2.5"/>
			<path d="M180.07,102.13c-0.94-0.95-2.59-0.95-3.53,0l-12.232,12.232L152.08,102.13c-0.95-0.95-2.6-0.95-3.54,0
				c-0.966,0.965-0.981,2.548,0,3.53l12.235,12.235L148.54,130.13c-0.978,0.977-0.969,2.56,0,3.53c0.922,0.941,2.507,1.032,3.54,0
				l12.228-12.232l12.232,12.232c0.938,0.958,2.533,1.016,3.53,0c0.976-0.957,0.998-2.553,0-3.53l-12.231-12.235l12.231-12.235
				C181.069,104.681,181.045,103.085,180.07,102.13z"/>
			<path d="M206.4,117.1c-1.38,0-2.5,1.12-2.5,2.5c0,1.37,1.12,2.49,2.5,2.49s2.5-1.12,2.5-2.49
				C208.9,118.22,207.78,117.1,206.4,117.1z"/>
			<path d="M47.098,116.167v15.901c0,1.381,1.119,2.5,2.5,2.5s2.5-1.119,2.5-2.5v-15.901c0-6.947,5.652-12.599,12.599-12.599h20.011
				c6.947,0,12.599,5.651,12.599,12.599v15.901c0,1.381,1.119,2.5,2.5,2.5c1.381,0,2.5-1.119,2.5-2.5v-15.901
				c0-9.208-7.112-16.773-16.128-17.524c2.581-2.763,4.175-6.461,4.175-10.531v-8.627c4.27-5.135,5.022-12.154,2.017-18.164
				c-0.638-1.277-2.18-1.725-3.39-1.1C83.051,63.317,82.221,64,79.89,64H66.52c-3.9,0-7.07,3.17-7.08,7.06
				c0,2.863-0.001,10.411-0.001,17.051c0,4.062,1.587,7.751,4.158,10.513C54.405,99.196,47.098,106.834,47.098,116.167z
				 M64.438,88.111V81.07h20.915v7.041c0,5.766-4.691,10.457-10.457,10.457S64.438,93.876,64.438,88.111z M66.52,69h13.37
				c3.626,0,5.693-1.364,8.92-3.05c0.94,3.648,0.084,7.318-2.097,10.115H64.44V71.07C64.45,69.93,65.38,69,66.52,69z"/>
			<path d="M99.81,144.69H49.6c-1.38,0-2.5,1.12-2.5,2.5s1.12,2.5,2.5,2.5h50.21c1.38,0,2.5-1.12,2.5-2.5
				S101.19,144.69,99.81,144.69z"/>
			<path d="M137.31,58.47c-1.38,0-2.5,1.12-2.5,2.5v4.58h-7.6c-4.13,0-7.5,3.37-7.5,7.5c0,7.839,0,56.518,0,68.88
				c0.01,4.13,3.37,7.49,7.5,7.5h74.19c4.14-0.01,7.5-3.37,7.5-7.5V129.6c0-1.38-1.12-2.5-2.5-2.5s-2.5,1.12-2.5,2.5v12.33
				c0,1.37-1.12,2.49-2.5,2.5h-74.19c-1.37-0.01-2.49-1.13-2.5-2.5v-54.27h79.19v21.93c0,1.38,1.12,2.5,2.5,2.5s2.5-1.12,2.5-2.5
				c0-15.702,0-20.777,0-36.54c0-4.13-3.36-7.5-7.5-7.5h-7.59v-4.58c0-1.38-1.12-2.5-2.5-2.5c-1.38,0-2.5,1.12-2.5,2.5v4.58h-13
				v-4.58c0-1.38-1.12-2.5-2.5-2.5c-1.38,0-2.5,1.12-2.5,2.5v4.58h-13v-4.58c0-1.38-1.12-2.5-2.5-2.5c-1.38,0-2.5,1.12-2.5,2.5v4.58
				h-13v-4.58C139.81,59.59,138.69,58.47,137.31,58.47z M152.81,70.55v4.58c0,1.38,1.12,2.5,2.5,2.5c1.38,0,2.5-1.12,2.5-2.5v-4.58
				h13v4.58c0,1.38,1.12,2.5,2.5,2.5c1.38,0,2.5-1.12,2.5-2.5v-4.58h13v4.58c0,1.38,1.12,2.5,2.5,2.5c1.38,0,2.5-1.12,2.5-2.5v-4.58
				h7.59c1.38,0,2.5,1.13,2.5,2.5v9.61h-79.19v-9.61c0.01-1.37,1.13-2.5,2.5-2.5h7.6v4.58c0,1.38,1.12,2.5,2.5,2.5
				c1.38,0,2.5-1.12,2.5-2.5v-4.58H152.81z"/>
		</g>
	</g>
</g>
</svg>
