<?xml version="1.0" encoding="utf-8"?>
<!-- Generator: Adobe Illustrator 18.0.0, SVG Export Plug-In . SVG Version: 6.00 Build 0)  -->
<!DOCTYPE svg PUBLIC "-//W3C//DTD SVG 1.1//EN" "http://www.w3.org/Graphics/SVG/1.1/DTD/svg11.dtd">
<svg version="1.1" id="Icon_Set" xmlns="http://www.w3.org/2000/svg" xmlns:xlink="http://www.w3.org/1999/xlink" x="0px" y="0px"
	 viewBox="0 0 512 512" style="enable-background:new 0 0 512 512;" xml:space="preserve">
<style type="text/css">
	.st0{fill:#4C4372;}
	.st1{fill:#F0C48A;}
	.st2{fill:#FD919E;}
	.st3{fill:#E8677D;}
	.st4{fill:#D3E6F8;}
	.st5{fill:#A4CFF2;}
	.st6{fill:#7BABF1;}
	.st7{fill:#FFFFFF;}
</style>
<g>
	<g>
		<g>
			<g>
				<circle class="st1" cx="256" cy="256" r="207"/>
			</g>
		</g>
	</g>
	<g>
		<g>
			<g>
				<g>
					<path class="st4" d="M432.438,165.381v302.052c0,21.376-16.154,38.705-36.08,38.705l0,0c-19.926,0-36.08-17.329-36.08-38.705
						V165.381c-29.725-13.675-50.374-43.698-50.374-78.562c0-37.059,23.323-68.659,56.087-80.955v80.955h60.734V5.863
						C459.488,18.16,482.81,49.76,482.81,86.818C482.81,121.683,462.162,151.706,432.438,165.381z"/>
				</g>
			</g>
		</g>
		<g>
			<g>
				<g>
					<path class="st5" d="M365.99,5.863v80.955h-56.087C309.903,49.76,333.227,18.16,365.99,5.863z"/>
				</g>
			</g>
		</g>
		<g>
			<g>
				<g>
					<path class="st5" d="M432.438,165.381v302.052c0,16.196-9.277,30.061-22.438,35.833V86.818h16.725V5.863
						C459.488,18.16,482.81,49.76,482.81,86.818C482.81,121.683,462.162,151.706,432.438,165.381z"/>
				</g>
			</g>
		</g>
		<g>
			<g>
				<g>
					<path class="st0" d="M396.357,512c-23.127,0-41.942-19.993-41.942-44.567V169.051c-30.724-15.701-50.374-47.571-50.374-82.232
						c0-38.261,24.067-73,59.889-86.443c1.801-0.678,3.817-0.426,5.398,0.669c1.581,1.096,2.524,2.897,2.524,4.819v75.093h49.009
						V5.863c0-1.923,0.943-3.724,2.524-4.819c1.581-1.095,3.599-1.346,5.398-0.669c35.822,13.443,59.89,48.183,59.89,86.443
						c0,34.661-19.65,66.531-50.374,82.232v298.382C438.3,492.007,419.484,512,396.357,512z M360.127,14.827
						c-26.848,13.562-44.361,41.495-44.361,71.991c0,31.365,18.434,60.112,46.962,73.236c2.08,0.957,3.412,3.037,3.412,5.326
						v302.052c0,18.109,13.556,32.842,30.218,32.842c16.662,0,30.218-14.733,30.218-32.842V165.381c0-2.289,1.332-4.369,3.412-5.326
						c28.528-13.124,46.961-41.871,46.961-73.236c0-30.497-17.513-58.43-44.361-71.991v71.991c0,3.238-2.625,5.863-5.862,5.863
						H365.99c-3.238,0-5.863-2.625-5.863-5.863V14.827z"/>
				</g>
			</g>
		</g>
		<g>
			<g>
				<g>
					<path class="st0" d="M365.99,92.681h-56.087c-3.237,0-5.862-2.625-5.862-5.863c0-38.261,24.067-73,59.889-86.443
						c1.801-0.678,3.817-0.426,5.398,0.669c1.581,1.096,2.524,2.897,2.524,4.819v80.955
						C371.853,90.056,369.228,92.681,365.99,92.681z M315.982,80.956h44.145V14.827C335.009,27.515,318.063,52.779,315.982,80.956z"
						/>
				</g>
			</g>
		</g>
		<g>
			<g>
				<path class="st0" d="M365.99,134.504c-3.238,0-5.863-2.625-5.863-5.863v-19.045c0-3.238,2.625-5.863,5.863-5.863
					c3.237,0,5.862,2.625,5.862,5.863v19.045C371.853,131.879,369.228,134.504,365.99,134.504z"/>
			</g>
		</g>
		<g>
			<g>
				<path class="st0" d="M385.022,134.504c-3.237,0-5.862-2.625-5.862-5.863v-19.045c0-3.238,2.625-5.863,5.862-5.863
					c3.238,0,5.863,2.625,5.863,5.863v19.045C390.885,131.879,388.26,134.504,385.022,134.504z"/>
			</g>
		</g>
		<g>
			<g>
				<path class="st0" d="M404.054,134.504c-3.237,0-5.862-2.625-5.862-5.863v-19.045c0-3.238,2.625-5.863,5.862-5.863
					c3.237,0,5.863,2.625,5.863,5.863v19.045C409.917,131.879,407.291,134.504,404.054,134.504z"/>
			</g>
		</g>
		<g>
			<g>
				<g>
					<path class="st2" d="M105.246,327.796H29.188v140.313c0,21.002,17.026,38.029,38.028,38.029l0,0
						c21.003,0,38.029-17.026,38.029-38.029V327.796z"/>
				</g>
			</g>
		</g>
		<g>
			<g>
				<g>
					<path class="st3" d="M105.246,327.796v140.313c0,21.003-17.026,38.029-38.029,38.029V327.796H105.246z"/>
				</g>
			</g>
		</g>
		<g>
			<g>
				<g>
					<polygon class="st4" points="79.313,83.801 79.313,265.01 55.122,265.01 55.122,83.801 42.641,83.801 52.326,5.863 
						82.108,5.863 91.793,83.801 					"/>
				</g>
			</g>
		</g>
		<g>
			<g>
				<g>
					<polygon class="st2" points="105.246,265.009 29.188,265.009 29.188,295.227 42.302,327.796 92.133,327.796 105.246,295.227 
											"/>
				</g>
			</g>
		</g>
		<g>
			<g>
				<g>
					<path class="st0" d="M67.217,512c-24.201,0-43.891-19.69-43.891-43.891V327.796c0-3.237,2.625-5.862,5.862-5.862h76.058
						c3.237,0,5.862,2.625,5.862,5.862v140.313C111.108,492.31,91.419,512,67.217,512z M35.051,333.659v134.45
						c0,17.737,14.43,32.166,32.166,32.166c17.737,0,32.166-14.429,32.166-32.166v-134.45H35.051z"/>
				</g>
			</g>
		</g>
		<g>
			<g>
				<g>
					<path class="st0" d="M79.313,270.872h-24.19c-3.237,0-5.863-2.625-5.863-5.862V89.664h-6.618c-1.681,0-3.281-0.722-4.393-1.981
						c-1.112-1.26-1.632-2.937-1.424-4.604l9.685-77.938c0.365-2.936,2.859-5.14,5.818-5.14h29.782c2.958,0,5.453,2.204,5.817,5.14
						l9.625,77.453c0.082,0.39,0.125,0.793,0.125,1.207c0,3.238-2.625,5.863-5.862,5.863c-0.008-0.001-0.015-0.001-0.021,0h-6.618
						V265.01C85.175,268.247,82.551,270.872,79.313,270.872z M60.984,259.146H73.45V83.801c0-3.238,2.625-5.863,5.862-5.863h5.845
						L76.93,11.726H57.505l-8.228,66.213h5.845c3.237,0,5.862,2.625,5.862,5.863V259.146z"/>
				</g>
			</g>
		</g>
		<g>
			<g>
				<g>
					<path class="st0" d="M92.133,333.659H42.302c-2.393,0-4.545-1.454-5.438-3.673L23.75,297.416
						c-0.279-0.695-0.424-1.438-0.424-2.189v-30.218c0-3.237,2.625-5.862,5.862-5.862h76.058c3.237,0,5.862,2.625,5.862,5.862
						v30.218c0,0.751-0.144,1.494-0.424,2.189l-13.113,32.569C96.678,332.205,94.524,333.659,92.133,333.659z M46.262,321.934
						h41.911l11.21-27.843v-23.219H35.051v23.219L46.262,321.934z"/>
				</g>
			</g>
		</g>
		<g>
			<g>
				<path class="st0" d="M105.246,301.09H29.188c-3.237,0-5.862-2.625-5.862-5.863c0-3.237,2.625-5.862,5.862-5.862h76.058
					c3.237,0,5.862,2.625,5.862,5.862C111.108,298.465,108.483,301.09,105.246,301.09z"/>
			</g>
		</g>
		<g>
			<g>
				<path class="st0" d="M67.217,512c-3.237,0-5.862-2.625-5.862-5.862V327.796c0-3.237,2.625-5.862,5.862-5.862
					c3.238,0,5.863,2.625,5.863,5.862v178.342C73.08,509.375,70.455,512,67.217,512z"/>
			</g>
		</g>
		<g>
			<g>
				<polygon class="st4" points="193.635,214.97 193.635,140.018 209.866,5.863 257.228,5.863 273.459,140.018 273.459,214.97 				
					"/>
			</g>
		</g>
		<g>
			<g>
				<polygon class="st5" points="233.547,5.863 233.547,214.97 273.459,214.97 273.459,140.018 257.228,5.863 				"/>
			</g>
		</g>
		<g>
			<g>
				<path class="st0" d="M273.459,220.833h-79.824c-3.237,0-5.862-2.625-5.862-5.862v-74.952c0-0.235,0.015-0.471,0.042-0.704
					L204.046,5.159c0.356-2.944,2.855-5.158,5.82-5.158h47.362c2.965,0,5.464,2.214,5.819,5.158l16.231,134.155
					c0.027,0.233,0.042,0.469,0.042,0.704v74.952C279.321,218.208,276.696,220.833,273.459,220.833z M199.498,209.108h68.099
					v-68.736L252.032,11.726h-36.97l-15.564,128.646V209.108z"/>
			</g>
		</g>
		<g>
			<g>
				<path class="st3" d="M311.598,304.809c-12.539-31.908-29.412-53.2-38.139-62.861V214.97h-35.522v34.129
					c0,4.965,2.021,9.651,5.674,13.013c0.213,0.2,21.422,20.349,35.556,57.311c18.853,49.307,16.936,103.994-5.698,162.544
					c-3.536,9.149,1.014,19.434,10.162,22.971c2.106,0.813,4.271,1.199,6.4,1.199c7.125,0,13.848-4.318,16.57-11.361
					C339.247,410.327,327.337,344.859,311.598,304.809z"/>
			</g>
		</g>
		<g>
			<g>
				<path class="st2" d="M193.635,241.948c-8.727,9.661-25.6,30.953-38.139,62.861c-15.739,40.05-27.649,105.518,4.996,189.967
					c2.724,7.044,9.445,11.361,16.57,11.361c2.129,0,4.295-0.386,6.4-1.199c9.148-3.537,13.698-13.821,10.162-22.971
					c-22.635-58.55-24.551-113.237-5.697-162.544c14.133-36.963,35.342-57.112,35.498-57.259c3.653-3.363,5.73-8.101,5.73-13.066
					V214.97h-35.521V241.948z"/>
			</g>
		</g>
		<g>
			<g>
				<path class="st0" d="M233.547,220.833c-3.237,0-5.862-2.625-5.862-5.862V7.048c0-3.238,2.625-5.863,5.862-5.863
					c3.238,0,5.863,2.625,5.863,5.863v207.923C239.41,218.208,236.785,220.833,233.547,220.833z"/>
			</g>
		</g>
		<g>
			<g>
				<path class="st0" d="M290.031,512c-2.912,0-5.776-0.536-8.513-1.593c-12.151-4.698-18.214-18.404-13.518-30.554
					c22.095-57.153,24.009-110.426,5.689-158.336c-13.513-35.34-33.899-54.948-34.104-55.142
					c-4.755-4.377-7.513-10.692-7.513-17.277v-34.128c0-3.238,2.625-5.863,5.863-5.863h35.522c3.237,0,5.862,2.625,5.862,5.863
					v24.747c9.444,10.764,25.577,32.016,37.733,62.947c16.12,41.02,28.342,108.016-4.984,194.226
					C308.575,505.928,299.719,512,290.031,512z M243.8,220.833v28.266c0,3.365,1.343,6.455,3.782,8.701
					c0.261,0.244,22.455,21.332,37.061,59.53c19.388,50.704,17.468,106.808-5.705,166.751c-2.365,6.12,0.689,13.023,6.809,15.389
					c1.381,0.533,2.823,0.804,4.285,0.804c4.881,0,9.342-3.059,11.102-7.613c31.964-82.687,20.366-146.628,5.007-185.709
					c-12.15-30.922-28.418-51.539-37.032-61.075c-0.974-1.078-1.512-2.478-1.512-3.93v-21.115H243.8z"/>
			</g>
		</g>
		<g>
			<g>
				<path class="st0" d="M177.063,512c-9.688,0-18.544-6.072-22.039-15.109c-33.325-86.211-21.105-153.205-4.984-194.226
					c12.156-30.932,28.289-52.184,37.733-62.947v-24.747c0-3.238,2.625-5.863,5.862-5.863h35.521c3.238,0,5.863,2.625,5.863,5.863
					v34.128c0,6.585-2.778,12.919-7.623,17.379c-0.145,0.139-20.502,19.756-33.993,55.039
					c-18.319,47.911-16.405,101.183,5.689,158.336c4.696,12.15-1.367,25.857-13.517,30.553C182.841,511.464,179.977,512,177.063,512
					z M199.498,220.833v21.115c0,1.452-0.539,2.853-1.513,3.93c-8.614,9.537-24.881,30.153-37.032,61.075
					c-15.359,39.081-26.957,103.022,5.008,185.709c1.76,4.554,6.222,7.613,11.102,7.613c1.463,0,2.905-0.271,4.287-0.805
					c6.118-2.365,9.172-9.268,6.807-15.389c-23.173-59.943-25.092-116.046-5.705-166.751c14.589-38.155,36.74-59.23,36.963-59.439
					c2.48-2.286,3.881-5.476,3.881-8.792v-28.266H199.498z"/>
			</g>
		</g>
		<g>
			<g>
				<circle class="st5" cx="233.547" cy="214.97" r="49.129"/>
			</g>
		</g>
		<g>
			<g>
				<circle class="st6" cx="233.547" cy="214.97" r="19.528"/>
			</g>
		</g>
		<g>
			<g>
				<path class="st0" d="M233.547,240.361c-14,0-25.391-11.391-25.391-25.391c0-14.001,11.391-25.392,25.391-25.392
					c14.001,0,25.391,11.391,25.391,25.392C258.938,228.971,247.548,240.361,233.547,240.361z M233.547,201.305
					c-7.535,0-13.665,6.13-13.665,13.666c0,7.535,6.13,13.665,13.665,13.665c7.535,0,13.666-6.13,13.666-13.665
					C247.213,207.435,241.082,201.305,233.547,201.305z"/>
			</g>
		</g>
		<g>
			<g>
				<path class="st0" d="M233.547,269.962c-30.322,0-54.992-24.669-54.992-54.991c0-30.323,24.67-54.993,54.992-54.993
					c30.322,0,54.992,24.669,54.992,54.993C288.539,245.293,263.869,269.962,233.547,269.962z M233.547,171.703
					c-23.857,0-43.267,19.409-43.267,43.268c0,23.857,19.409,43.267,43.267,43.267s43.267-19.41,43.267-43.267
					C276.814,191.112,257.404,171.703,233.547,171.703z"/>
			</g>
		</g>
	</g>
</g>
</svg>
